<svg xmlns="http://www.w3.org/2000/svg" viewBox="0 0 8.87 8.87"><defs><style>.cls-1{fill:#fff;}.cls-2{fill:none;stroke:#000;stroke-width:0.15px;}</style></defs><g id="Layer_2" data-name="Layer 2"><g id="Layer_1-2" data-name="Layer 1"><rect class="cls-1" width="8.87" height="8.87"/><path class="cls-2" d="M3.67,5.39v.25m0-2.3v.25M3.22,4.94a.45.45,0,0,0,.9,0c0-.25-.19-.37-.45-.45s-.45-.2-.45-.45a.45.45,0,0,1,.9,0m.46-1.9.67-.65L5,1.25a.47.47,0,0,0-.66,0l-.19.19-.09-.08a.56.56,0,0,0-.81,0l-.08.08L3,1.25a.46.46,0,0,0-.65,0l-.24.24.67.65m3.4,3.24a2.43,2.43,0,0,0-.5-1.49L4.58,2.14H2.76L1.65,3.89a2.57,2.57,0,0,0-.5,1.49h0A1.47,1.47,0,0,0,2.62,6.84H4.68a1.52,1.52,0,0,0,.59-.12"/><path class="cls-2" d="M8.07,6.73A1.23,1.23,0,1,1,6.85,5.5,1.22,1.22,0,0,1,8.07,6.73ZM6.33,6.68l.44.39.64-.77"/></g></g></svg>