<svg xmlns="http://www.w3.org/2000/svg" viewBox="0 0 8.87 8.87"><defs><style>.cls-1{fill:#fff;}.cls-2{fill:none;stroke:#000;stroke-width:0.15px;}</style></defs><g id="Layer_2" data-name="Layer 2"><g id="Layer_1-2" data-name="Layer 1"><rect class="cls-1" width="8.87" height="8.87"/><path class="cls-2" d="M6.69,3.15l1.1-.46-.46,1.1M2.64,7.2l.62.61m1.87-3.1L6.69,3.15l.64.64L5.77,5.34m-1,1L3,8.17a.47.47,0,0,1-.64,0,.45.45,0,0,1,0-.64L4.09,5.75"/><path class="cls-2" d="M3.08,4.72l-.63-.63a.07.07,0,0,1,0-.1l.93-.92a.06.06,0,0,1,.09,0l.63.63a.06.06,0,0,1,0,.09l-.92.93A.07.07,0,0,1,3.08,4.72Zm.38-.25.16.23A2.51,2.51,0,0,0,3.88,5L7.09,8.22a.12.12,0,0,0,.17,0l.34-.34a.13.13,0,0,0,0-.18L4.39,4.49a1.89,1.89,0,0,0-.31-.25l-.23-.16"/><path class="cls-2" d="M2.23,5.47l-.59-.59a.07.07,0,0,1,0-.09l.25-.24a.06.06,0,0,1,.09,0l.59.59a.07.07,0,0,1,0,.09l-.25.24A.06.06,0,0,1,2.23,5.47Z"/><path class="cls-2" d="M3.59,3.08l.18-.16a.79.79,0,0,1,.77-.18A3.49,3.49,0,0,1,5.13,3S5.2,3,5,3.09a.24.24,0,0,1-.1,0,.92.92,0,0,0-.74.19L4,3.44"/><path class="cls-2" d="M3,4.71a.34.34,0,0,0-.32.11.37.37,0,0,0-.11.32M2.4,4.07A.37.37,0,0,1,2,4.5"/></g></g></svg>