<svg xmlns="http://www.w3.org/2000/svg" viewBox="0 0 8.87 8.87"><defs><style>.cls-1{fill:#fff;}.cls-2{fill:none;stroke:#000;stroke-width:0.15px;}</style></defs><g id="Layer_2" data-name="Layer 2"><g id="Layer_1-2" data-name="Layer 1"><rect class="cls-1" width="8.87" height="8.87"/><path class="cls-2" d="M1.48,7.64,7.81,1.32M6.4,4.45A1.76,1.76,0,1,1,4.65,2.7,1.75,1.75,0,0,1,6.4,4.45ZM4.65,2.7A3.72,3.72,0,0,0,1.49,4.45a3.72,3.72,0,0,0,6.31,0A3.71,3.71,0,0,0,4.65,2.7ZM5.6,4.45a.95.95,0,1,1-.95-1A.95.95,0,0,1,5.6,4.45Z"/></g></g></svg>